<?xml version="1.0" encoding="UTF-8" standalone="no"?>
<!-- Created with Inkscape (http://www.inkscape.org/) -->

<svg
   xmlns:dc="http://purl.org/dc/elements/1.1/"
   xmlns:cc="http://creativecommons.org/ns#"
   xmlns:rdf="http://www.w3.org/1999/02/22-rdf-syntax-ns#"
   xmlns:svg="http://www.w3.org/2000/svg"
   xmlns="http://www.w3.org/2000/svg"
   xmlns:sodipodi="http://sodipodi.sourceforge.net/DTD/sodipodi-0.dtd"
   xmlns:inkscape="http://www.inkscape.org/namespaces/inkscape"
   width="50.41103mm"
   height="57.838062mm"
   viewBox="0 0 178.62176 204.93802"
   id="svg2"
   version="1.1"
   inkscape:version="0.91 r13725"
   sodipodi:docname="reimersexcavationlogo.svg">
  <defs
     id="defs4" />
  <sodipodi:namedview
     id="base"
     pagecolor="#ffffff"
     bordercolor="#666666"
     borderopacity="1.0"
     inkscape:pageopacity="0.0"
     inkscape:pageshadow="2"
     inkscape:zoom="3.0042247"
     inkscape:cx="-47.968355"
     inkscape:cy="166.06825"
     inkscape:document-units="px"
     inkscape:current-layer="g4454"
     showgrid="false"
     showborder="false"
     inkscape:window-width="1920"
     inkscape:window-height="1027"
     inkscape:window-x="0"
     inkscape:window-y="0"
     inkscape:window-maximized="1"
     inkscape:object-paths="true"
     inkscape:object-nodes="true"
     inkscape:snap-intersection-paths="true"
     inkscape:snap-smooth-nodes="true"
     inkscape:snap-midpoints="true"
     fit-margin-top="0"
     fit-margin-left="0"
     fit-margin-right="0"
     fit-margin-bottom="0" />
  <metadata
     id="metadata7">
    <rdf:RDF>
      <cc:Work
         rdf:about="">
        <dc:format>image/svg+xml</dc:format>
        <dc:type
           rdf:resource="http://purl.org/dc/dcmitype/StillImage" />
        <dc:title />
      </cc:Work>
    </rdf:RDF>
  </metadata>
  <g
     inkscape:label="Layer 1"
     inkscape:groupmode="layer"
     id="layer1"
     transform="translate(58.331451,-117.48819)">
    <g
       id="g4454"
       transform="translate(144.18143,28.836285)">
      <g
         id="g4563"
         inkscape:export-xdpi="200"
         inkscape:export-ydpi="200">
        <path
           sodipodi:nodetypes="ccssssssssssscssssscscsssssssssssscssssssssscssssssssscsscsccccccscscsccscscccsccccssccccscsccsscscssscsscsscsscsccscscsccssssscscsssc"
           inkscape:connector-curvature="0"
           id="path4456"
           d="m -32.418582,290.78192 c -10.66787,-4.32243 -10.91378,-4.44143 -16.88325,-8.17034 -6.33605,-3.95789 -6.90066,-4.34302 -13.03734,-8.89282 -4.40878,-3.26873 -4.44738,-3.28936 -14.45139,-7.72799 -12.02534,-5.33546 -11.43987,-5.04875 -14.42802,-7.06539 -2.54294,-1.71617 -2.59241,-1.73588 -50.849998,-20.26171 -17.55942,-6.74097 -21.5047,-8.33907 -25.53348,-10.34272 -7.73962,-3.84914 -12.28925,-7.07465 -18.15401,-12.87052 -5.78864,-5.72063 -9.02382,-10.43409 -11.75173,-17.12155 -3.4809,-8.53339 -5.58727,-20.92469 -4.86282,-28.60687 1.61523,-17.12806 9.88439,-30.9042 24.00204,-39.9866 2.9111,-1.87282 7.35073,-4.3093 15.23992,-8.36364 l 5.48993,-2.82134 10.19946,-13.85296 c 8.46213,-11.493316 10.43975,-14.004553 11.61008,-14.742883 2.72076,-1.71646 4.11099,-1.72957 8.62933,-0.0814 3.91361,1.42761 7.88272,2.59281 10.43253,3.06263 1.8134,0.33413 1.93002,0.31461 4.8534,-0.81227 2.85515,-1.10059 3.15683,-1.15443 6.44535,-1.15035 3.86512,0.005 5.38368,0.43388 8.389918,2.3707 1.10231,0.71017 1.98735,1.05373 2.69996,1.04806 0.58307,-0.005 3.72012,-0.46432 6.97124,-1.02153 7.29695,-1.25063 8.10043,-1.14544 10.22694,1.33891 1.80252,2.10583 2.19441,5.404873 0.9325,7.849923 -0.28134,0.54512 -2.24606,2.75615 -4.36605,4.9134 -2.923,2.97438 -3.85451,4.10869 -3.85451,4.69364 0,0.42426 1.35327,3.51923 3.00726,6.87773 1.65399,3.3585 3.26767,6.98386 3.58595,8.05636 0.62314,2.09978 1.915,11.5822 1.63882,12.02908 -0.42405,0.68613 -1.38786,0.0367 -4.49516,-3.02908 -3.37148,-3.32638 -4.1658,-3.77908 -4.95734,-2.82533 -0.4366,0.52607 -0.36683,1.34108 1.05093,12.27533 0.42788,3.3 1.64291,13.19982 2.70006,21.9996 1.49649,12.45685 2.02489,16.07719 2.38637,16.35 0.44697,0.33734 1.75029,3.32804 5.64369,12.9504 1.00143,2.475 2.26887,5.175 2.81653,6 0.54766,0.825 2.87718,3.57397 5.17672,6.10882 2.29953,2.53484 4.35492,4.93382 4.56751,5.33106 0.7373,1.37767 -0.0435,1.41043 -2.8507,0.11961 -2.92418,-1.34458 -3.47126,-1.45252 -3.46931,-0.68449 0.002,0.78592 4.67481,6.5243 7.29851,8.96284 2.10428,1.95578 2.60504,2.70728 2.1243,3.18801 -0.0967,0.0967 -1.0543,-0.21828 -2.12796,-0.7 -2.25231,-1.01053 -3.09642,-1.10621 -3.09564,-0.35085 9e-4,0.82756 3.08239,4.71592 7.63104,9.629 4.24667,4.58691 4.9388,5.48331 4.95779,6.421 0.0137,0.67668 0.0423,0.68137 -2.28745,-0.375 -2.41419,-1.09465 -2.80192,-1.11746 -2.80192,-0.16488 0,0.77342 1.71807,5.75611 2.5184,7.30378 0.49855,0.96408 3.03892,3.33718 7.67151,7.16639 2.19367,1.81324 3.0288,2.72258 3.66997,3.99606 0.92929,1.84573 1.05506,2.69865 0.39793,2.69865 -0.24321,0 -1.46172,-0.405 -2.70781,-0.9 -2.50658,-0.99572 -3.30708,-1.10517 -3.54516,-0.48473 -0.24213,0.63096 3.01269,6.9465 5.04516,9.78946 2.33433,3.26521 5.8159,6.74897 11.4,11.40719 l 4.5,3.75387 1.55218,3.1421 c 0.8537,1.72815 1.56245,3.4382 1.575,3.8001 0.0194,0.55853 -0.96422,1.61692 -1.46893,1.58063 -0.087,-0.006 -3.26325,-1.26947 -7.05825,-2.80714 z m -69.151938,-61.15648 c 0.64115,-1.51745 2.709518,-9.27002 2.544468,-9.53708 -0.10798,-0.17474 -4.174018,-0.28793 -10.342528,-0.28793 -5.59053,0 -10.2332,-0.11102 -10.31706,-0.2467 -0.0839,-0.13569 0.28202,-1.72195 0.81307,-3.525 l 0.96555,-3.2783 8.77772,-0.0795 c 8.76576,-0.0794 8.77811,-0.0805 9.06085,-0.75 0.639988,-1.5155 2.707118,-9.26602 2.542398,-9.53253 -0.10677,-0.17276 -3.523678,-0.28792 -8.542528,-0.28792 -4.60053,0 -8.4332,-0.11102 -8.51706,-0.24671 -0.0839,-0.13568 0.28201,-1.72193 0.81304,-3.52499 l 0.96551,-3.2783 10.64225,-0.15 10.642238,-0.15 1.2714,-4.35 c 0.69927,-2.3925 1.27392,-4.7223 1.27701,-5.17733 l 0.006,-0.82732 -18.224998,0.0773 -18.225,0.0773 -6.3548,22.05 c -3.49514,12.1275 -6.36389,22.42125 -6.375,22.875 l -0.0202,0.825 18.15643,0 18.15643,0 0.28521,-0.675 z m -53.51164,-51.58395 c 0.12201,-0.19741 1.17623,-3.67366 2.34271,-7.725 l 2.12087,-7.36606 2.7,-0.0927 c 3.10988,-0.10682 4.94482,0.10344 5.69595,0.65268 0.49324,0.36067 0.3989,0.833 -1.47454,7.38265 -1.13144,3.95555 -1.8883,7.11052 -1.7411,7.25773 0.14323,0.14322 3.62625,0.22426 7.74005,0.18004 l 7.47964,-0.0804 2.02037,-6.9 c 1.7713,-6.04936 2.01127,-7.16223 1.94659,-9.02706 -0.06,-1.72976 -0.22432,-2.35456 -0.87978,-3.34501 l -0.806,-1.21794 1.2357,-0.855 c 1.57035,-1.08655 3.34121,-3.31709 3.94685,-4.97138 0.81572,-2.22811 3.78656,-12.87256 3.77968,-13.54246 -0.0128,-1.25043 -1.14278,-3.15071 -2.42632,-4.0805 -2.48967,-1.80351 -2.72694,-1.82393 -20.2281,-1.73834 l -15.88899,0.0777 -6.3548,22.05 c -3.49514,12.1275 -6.36389,22.42125 -6.375,22.875 l -0.0202,0.825 7.48229,0 c 5.48362,0 7.54156,-0.0959 7.70413,-0.35895 z m 7.80522,-25.97369 c -0.1037,-0.16778 0.38639,-2.24283 1.08909,-4.61122 l 1.27763,-4.30615 4.32227,-0.0836 c 2.37725,-0.046 4.43008,0.0243 4.56185,0.15604 0.21546,0.21545 -1.0699,5.05448 -1.86066,7.0049 -0.52769,1.30157 -2.12615,1.84785 -5.86673,2.00497 -2.08957,0.0878 -3.40532,0.0262 -3.52345,-0.16499 z m 66.382378,-49.19905 c 1.10337,-0.81849 1.65783,-2.61437 1.24152,-4.021213 -0.49773,-1.68193 -1.83535,-2.64711 -3.66856,-2.64711 -1.31382,0 -1.63772,0.13074 -2.52698,1.02 -0.9085,0.9085 -1.01927,1.19545 -1.01333,2.625 0.007,1.786303 0.48877,2.629553 1.94333,3.404473 1.1124,0.59263 2.94536,0.41901 4.02402,-0.38115 z m -48.832918,-4.816513 c 1.62848,-1.82259 1.29996,-4.52597 -0.69805,-5.74412 -2.57123,-1.56764 -5.64305,0.0636 -5.64305,2.99665 0,2.5813 1.49778,3.98889 4.03218,3.78941 1.19716,-0.0942 1.64116,-0.29459 2.30892,-1.04194 z"
           style="fill:#010100" />
        <g
           transform="translate(75.60621,-0.122405)"
           id="g4555">
          <path
             style="fill:#95a5a6;fill-opacity:1;fill-rule:evenodd;stroke:none;stroke-width:1px;stroke-linecap:butt;stroke-linejoin:miter;stroke-opacity:1"
             d="m -213.85064,230.29949 0.0202,-0.825 c 3.27334,-13.84342 8.36843,-29.81222 12.7298,-44.92501 l 36.45,-0.15459 c 0.19658,1.64128 -1.69664,6.89221 -2.55441,10.35465 l -21.28449,0.29999 -1.77855,6.8033 c 5.38171,0.13276 15.70948,0.18574 16.14513,0.39828 l 0.91446,0.13635 c -0.64772,3.13756 -1.53706,6.32344 -2.5424,9.53253 -0.27716,0.58653 -0.84848,0.47079 -1.38733,0.59938 l -16.45124,0.23012 -1.77862,6.80329 c 6.88653,0.17821 19.45919,0.022 20.65959,0.53464 -0.75757,3.11543 -1.21836,5.7692 -2.82928,10.21207 z"
             id="path4551"
             inkscape:connector-curvature="0"
             sodipodi:nodetypes="cccccccccccccccc" />
          <path
             sodipodi:nodetypes="cccccccccccccccc"
             inkscape:connector-curvature="0"
             id="path4553"
             d="m -213.84541,230.30043 0.0202,-0.825 c 3.27334,-13.84342 8.36843,-29.81222 12.7298,-44.92501 l 36.45,-0.15459 c 0.19658,1.64128 -1.69664,6.89221 -2.55441,10.35465 l -21.28449,0.29999 -1.77855,6.8033 c 5.38171,0.13276 15.70949,0.18574 16.14514,0.39828 l 0.91445,0.13635 c -0.64772,3.13756 -1.53705,6.32344 -2.5424,9.53253 -0.27716,0.58653 -0.84848,0.47079 -1.38733,0.59938 l -16.45124,0.23012 -1.77862,6.80329 c 6.88653,0.17821 19.45919,0.022 20.65959,0.53464 -0.75757,3.11543 -1.21836,5.7692 -2.82928,10.21207 z"
             style="fill:none;fill-rule:evenodd;stroke:#f1c40f;stroke-width:1px;stroke-linecap:butt;stroke-linejoin:miter;stroke-opacity:1" />
        </g>
        <path
           sodipodi:nodetypes="ccccccccccccccc"
           inkscape:connector-curvature="0"
           id="path4559"
           d="m -157.51858,132.65043 29.60985,-0.0312 c 5.40597,-0.0865 8.49944,2.44959 8.93356,5.77239 -0.85819,3.55007 -1.91583,7.57881 -3.77968,13.54246 -1.34164,3.07114 -3.24341,4.90795 -5.18255,5.82638 2.10781,2.12051 1.98068,4.58486 1.48321,7.10619 -1.2548,5.35833 -2.50959,8.94269 -3.76439,13.38383 -5.09304,-0.0276 -11.42592,0.29909 -15.21969,-0.0997 0.46382,-3.39739 2.14173,-8.61594 3.33095,-13.10144 0.42353,-1.61707 -0.11531,-1.53893 -0.52979,-1.76438 -1.29493,-0.71694 -6.42527,-0.43591 -7.98147,-0.33454 l -4.46358,15.09106 c -1.12309,0.4948 -10.08962,0.2426 -15.18642,0.35895 l 0.0202,-0.825 c 13.33273,-47.50572 8.48653,-29.95 12.7298,-44.925 z"
           style="fill:#95a5a6;fill-opacity:1;fill-rule:evenodd;stroke:#f1c40f;stroke-width:1px;stroke-linecap:butt;stroke-linejoin:miter;stroke-opacity:1" />
        <path
           sodipodi:nodetypes="ccccc"
           inkscape:connector-curvature="0"
           id="path4561"
           d="m -147.27694,152.06779 c 0.20916,-2.04486 1.51948,-5.85158 2.36672,-8.91737 3.78072,-0.16495 6.96289,-0.19177 8.88412,0.0724 -0.15562,1.96329 -1.00413,4.48088 -1.86066,7.0049 -1.19981,2.54361 -7.30537,1.91202 -9.39018,1.84007 z"
           style="fill:#010100;fill-opacity:1;fill-rule:evenodd;stroke:#f1c40f;stroke-width:1px;stroke-linecap:butt;stroke-linejoin:miter;stroke-opacity:1" />
      </g>
    </g>
  </g>
</svg>
